HIERARCHY
ROOT Hips
{
	OFFSET -22.570961 -27.246878 87.035881
	CHANNELS 6 Xposition Yposition Zposition Zrotation Yrotation Xrotation
	JOINT Spine
	{
		OFFSET 0.000000 2.080109 8.814247
		CHANNELS 6 Xposition Yposition Zposition Zrotation Yrotation Xrotation
		JOINT Spine1
		{
			OFFSET 0.000000 0.000000 8.844139
			CHANNELS 6 Xposition Yposition Zposition Zrotation Yrotation Xrotation
			JOINT Spine2
			{
				OFFSET 0.000000 0.000002 11.682266
				CHANNELS 6 Xposition Yposition Zposition Zrotation Yrotation Xrotation
				JOINT Spine3
				{
					OFFSET 0.000000 0.000000 11.746696
					CHANNELS 6 Xposition Yposition Zposition Zrotation Yrotation Xrotation
					JOINT Neck
					{
						OFFSET 0.000000 0.000002 17.658264
						CHANNELS 6 Xposition Yposition Zposition Zrotation Yrotation Xrotation
						JOINT Neck1
						{
							OFFSET 0.000000 0.000000 5.101517
							CHANNELS 6 Xposition Yposition Zposition Zrotation Yrotation Xrotation
							JOINT Head
							{
								OFFSET 0.000000 0.000000 5.101517
								CHANNELS 6 Xposition Yposition Zposition Zrotation Yrotation Xrotation
								JOINT HeadEnd
								{
									OFFSET 0.000000 0.000002 11.655090
									CHANNELS 6 Xposition Yposition Zposition Zrotation Yrotation Xrotation
									End Site
									{
										OFFSET 0.000000 0.000000 0.100006
									}
								}
							}
						}
					}
					JOINT RightShoulder
					{
						OFFSET -2.625389 0.000002 11.175217
						CHANNELS 6 Xposition Yposition Zposition Zrotation Yrotation Xrotation
						JOINT RightArm
						{
							OFFSET 0.000000 0.000000 10.434708
							CHANNELS 6 Xposition Yposition Zposition Zrotation Yrotation Xrotation
							JOINT RightForeArm
							{
								OFFSET 0.000000 0.000002 29.628418
								CHANNELS 6 Xposition Yposition Zposition Zrotation Yrotation Xrotation
								JOINT RightHand
								{
									OFFSET 0.000000 0.000002 22.857605
									CHANNELS 6 Xposition Yposition Zposition Zrotation Yrotation Xrotation
									JOINT RightHandThumb1
									{
										OFFSET -2.867323 -2.944292 3.959564
										CHANNELS 6 Xposition Yposition Zposition Zrotation Yrotation Xrotation
										JOINT RightHandThumb2
										{
											OFFSET 0.000000 0.000000 3.350403
											CHANNELS 6 Xposition Yposition Zposition Zrotation Yrotation Xrotation
											JOINT RightHandThumb3
											{
												OFFSET 0.000000 0.000000 3.756516
												CHANNELS 6 Xposition Yposition Zposition Zrotation Yrotation Xrotation
												JOINT RightHandThumb4
												{
													OFFSET 0.000000 0.000002 3.147339
													CHANNELS 6 Xposition Yposition Zposition Zrotation Yrotation Xrotation
													End Site
													{
														OFFSET 0.000000 0.000000 0.100006
													}
												}
											}
										}
									}
									JOINT RightHandIndex1
									{
										OFFSET -0.086752 -2.345280 10.030899
										CHANNELS 6 Xposition Yposition Zposition Zrotation Yrotation Xrotation
										JOINT RightHandIndex2
										{
											OFFSET 0.000000 0.000002 4.061096
											CHANNELS 6 Xposition Yposition Zposition Zrotation Yrotation Xrotation
											JOINT RightHandIndex3
											{
												OFFSET 0.000000 0.000000 3.248871
												CHANNELS 6 Xposition Yposition Zposition Zrotation Yrotation Xrotation
												JOINT RightHandIndex4
												{
													OFFSET 0.000000 0.000000 2.639709
													CHANNELS 6 Xposition Yposition Zposition Zrotation Yrotation Xrotation
													End Site
													{
														OFFSET 0.000000 0.000000 0.100006
													}
												}
											}
										}
									}
									JOINT RightHandMiddle1
									{
										OFFSET 0.104101 -0.006767 9.502945
										CHANNELS 6 Xposition Yposition Zposition Zrotation Yrotation Xrotation
										JOINT RightHandMiddle2
										{
											OFFSET 0.000000 0.000002 4.568726
											CHANNELS 6 Xposition Yposition Zposition Zrotation Yrotation Xrotation
											JOINT RightHandMiddle3
											{
												OFFSET 0.000000 0.000000 3.654984
												CHANNELS 6 Xposition Yposition Zposition Zrotation Yrotation Xrotation
												JOINT RightHandMiddle4
												{
													OFFSET 0.000000 0.000000 2.741241
													CHANNELS 6 Xposition Yposition Zposition Zrotation Yrotation Xrotation
													End Site
													{
														OFFSET 0.000000 0.000000 0.100006
													}
												}
											}
										}
									}
									JOINT RightHandRing1
									{
										OFFSET 0.086752 2.267443 8.921707
										CHANNELS 6 Xposition Yposition Zposition Zrotation Yrotation Xrotation
										JOINT RightHandRing2
										{
											OFFSET 0.000000 0.000002 4.061096
											CHANNELS 6 Xposition Yposition Zposition Zrotation Yrotation Xrotation
											JOINT RightHandRing3
											{
												OFFSET 0.000000 0.000000 3.654984
												CHANNELS 6 Xposition Yposition Zposition Zrotation Yrotation Xrotation
												JOINT RightHandRing4
												{
													OFFSET 0.000000 0.000000 2.741241
													CHANNELS 6 Xposition Yposition Zposition Zrotation Yrotation Xrotation
													End Site
													{
														OFFSET 0.000000 0.000000 0.100006
													}
												}
											}
										}
									}
									JOINT RightHandPinky1
									{
										OFFSET -0.173504 4.467199 7.976990
										CHANNELS 6 Xposition Yposition Zposition Zrotation Yrotation Xrotation
										JOINT RightHandPinky2
										{
											OFFSET 0.000000 0.000000 3.350403
											CHANNELS 6 Xposition Yposition Zposition Zrotation Yrotation Xrotation
											JOINT RightHandPinky3
											{
												OFFSET 0.000000 0.000002 2.842758
												CHANNELS 6 Xposition Yposition Zposition Zrotation Yrotation Xrotation
												JOINT RightHandPinky4
												{
													OFFSET 0.000000 0.000000 2.639709
													CHANNELS 6 Xposition Yposition Zposition Zrotation Yrotation Xrotation
													End Site
													{
														OFFSET 0.000000 0.000000 0.100006
													}
												}
											}
										}
									}
									JOINT RightForeArmEnd
									{
										OFFSET 0.000000 0.000000 0.000000
										CHANNELS 6 Xposition Yposition Zposition Zrotation Yrotation Xrotation
										End Site
										{
											OFFSET 0.000000 0.000000 0.100006
										}
									}
								}
								JOINT RightArmEnd
								{
									OFFSET 0.000000 0.000000 0.000000
									CHANNELS 6 Xposition Yposition Zposition Zrotation Yrotation Xrotation
									End Site
									{
										OFFSET 0.000000 0.000000 0.100006
									}
								}
							}
						}
					}
					JOINT LeftShoulder
					{
						OFFSET 2.625389 0.000002 11.175217
						CHANNELS 6 Xposition Yposition Zposition Zrotation Yrotation Xrotation
						JOINT LeftArm
						{
							OFFSET 0.000000 0.000000 10.813629
							CHANNELS 6 Xposition Yposition Zposition Zrotation Yrotation Xrotation
							JOINT LeftForeArm
							{
								OFFSET 0.000000 0.000002 28.724777
								CHANNELS 6 Xposition Yposition Zposition Zrotation Yrotation Xrotation
								JOINT LeftHand
								{
									OFFSET 0.644384 0.328873 25.716171
									CHANNELS 6 Xposition Yposition Zposition Zrotation Yrotation Xrotation
									JOINT LeftHandThumb1
									{
										OFFSET 2.867323 -2.944290 3.959564
										CHANNELS 6 Xposition Yposition Zposition Zrotation Yrotation Xrotation
										JOINT LeftHandThumb2
										{
											OFFSET 0.000000 0.000000 3.350403
											CHANNELS 6 Xposition Yposition Zposition Zrotation Yrotation Xrotation
											JOINT LeftHandThumb3
											{
												OFFSET 0.000000 0.000002 3.756516
												CHANNELS 6 Xposition Yposition Zposition Zrotation Yrotation Xrotation
												JOINT LeftHandThumb4
												{
													OFFSET 0.000000 0.000000 3.100006
													CHANNELS 6 Xposition Yposition Zposition Zrotation Yrotation Xrotation
													End Site
													{
														OFFSET 0.000000 0.000000 0.100006
													}
												}
											}
										}
									}
									JOINT LeftHandIndex1
									{
										OFFSET 0.086752 -2.345280 10.030899
										CHANNELS 6 Xposition Yposition Zposition Zrotation Yrotation Xrotation
										JOINT LeftHandIndex2
										{
											OFFSET 0.000000 0.000002 4.061096
											CHANNELS 6 Xposition Yposition Zposition Zrotation Yrotation Xrotation
											JOINT LeftHandIndex3
											{
												OFFSET 0.000000 0.000000 3.248871
												CHANNELS 6 Xposition Yposition Zposition Zrotation Yrotation Xrotation
												JOINT LeftHandIndex4
												{
													OFFSET 0.000000 0.000000 2.639709
													CHANNELS 6 Xposition Yposition Zposition Zrotation Yrotation Xrotation
													End Site
													{
														OFFSET 0.000000 0.000000 0.100006
													}
												}
											}
										}
									}
									JOINT LeftHandMiddle1
									{
										OFFSET -0.104101 -0.006767 9.502945
										CHANNELS 6 Xposition Yposition Zposition Zrotation Yrotation Xrotation
										JOINT LeftHandMiddle2
										{
											OFFSET 0.000000 0.000002 4.568726
											CHANNELS 6 Xposition Yposition Zposition Zrotation Yrotation Xrotation
											JOINT LeftHandMiddle3
											{
												OFFSET 0.000000 0.000000 3.654984
												CHANNELS 6 Xposition Yposition Zposition Zrotation Yrotation Xrotation
												JOINT LeftHandMiddle4
												{
													OFFSET 0.000000 0.000000 2.741241
													CHANNELS 6 Xposition Yposition Zposition Zrotation Yrotation Xrotation
													End Site
													{
														OFFSET 0.000000 0.000000 0.100006
													}
												}
											}
										}
									}
									JOINT LeftHandRing1
									{
										OFFSET -0.086752 2.267443 8.921707
										CHANNELS 6 Xposition Yposition Zposition Zrotation Yrotation Xrotation
										JOINT LeftHandRing2
										{
											OFFSET 0.000000 0.000002 4.061096
											CHANNELS 6 Xposition Yposition Zposition Zrotation Yrotation Xrotation
											JOINT LeftHandRing3
											{
												OFFSET 0.000000 0.000000 3.654984
												CHANNELS 6 Xposition Yposition Zposition Zrotation Yrotation Xrotation
												JOINT LeftHandRing4
												{
													OFFSET 0.000000 0.000000 2.741241
													CHANNELS 6 Xposition Yposition Zposition Zrotation Yrotation Xrotation
													End Site
													{
														OFFSET 0.000000 0.000000 0.100006
													}
												}
											}
										}
									}
									JOINT LeftHandPinky1
									{
										OFFSET 0.173504 4.467199 7.976990
										CHANNELS 6 Xposition Yposition Zposition Zrotation Yrotation Xrotation
										JOINT LeftHandPinky2
										{
											OFFSET 0.000000 0.000002 3.350403
											CHANNELS 6 Xposition Yposition Zposition Zrotation Yrotation Xrotation
											JOINT LeftHandPinky3
											{
												OFFSET 0.000000 0.000000 2.842758
												CHANNELS 6 Xposition Yposition Zposition Zrotation Yrotation Xrotation
												JOINT LeftHandPinky4
												{
													OFFSET 0.000000 0.000000 2.639709
													CHANNELS 6 Xposition Yposition Zposition Zrotation Yrotation Xrotation
													End Site
													{
														OFFSET 0.000000 0.000000 0.100006
													}
												}
											}
										}
									}
									JOINT LeftForeArmEnd
									{
										OFFSET 0.000000 0.000000 0.000000
										CHANNELS 6 Xposition Yposition Zposition Zrotation Yrotation Xrotation
										End Site
										{
											OFFSET 0.000000 0.000000 0.100006
										}
									}
								}
								JOINT LeftArmEnd
								{
									OFFSET 0.000000 0.000000 0.000000
									CHANNELS 6 Xposition Yposition Zposition Zrotation Yrotation Xrotation
									End Site
									{
										OFFSET 0.000000 0.000000 0.100006
									}
								}
							}
						}
					}
				}
			}
		}
	}
	JOINT RightUpLeg
	{
		OFFSET -11.289944 0.000000 0.000000
		CHANNELS 6 Xposition Yposition Zposition Zrotation Yrotation Xrotation
		JOINT RightLeg
		{
			OFFSET 0.000000 -0.000002 -38.200321
			CHANNELS 6 Xposition Yposition Zposition Zrotation Yrotation Xrotation
			JOINT RightFoot
			{
				OFFSET 0.000000 -0.000004 -39.900856
				CHANNELS 6 Xposition Yposition Zposition Zrotation Yrotation Xrotation
				JOINT RightToeBase
				{
					OFFSET 0.000000 -15.261639 0.000001
					CHANNELS 6 Xposition Yposition Zposition Zrotation Yrotation Xrotation
					JOINT RightToeBaseEnd
					{
						OFFSET 0.000000 -7.370708 0.000001
						CHANNELS 6 Xposition Yposition Zposition Zrotation Yrotation Xrotation
						End Site
						{
							OFFSET 0.000000 0.000000 0.100000
						}
					}
				}
				JOINT RightLegEnd
				{
					OFFSET 0.000000 0.000000 0.000000
					CHANNELS 6 Xposition Yposition Zposition Zrotation Yrotation Xrotation
					End Site
					{
						OFFSET 0.000000 0.000000 0.100000
					}
				}
			}
			JOINT RightUpLegEnd
			{
				OFFSET 0.000000 0.000000 0.000000
				CHANNELS 6 Xposition Yposition Zposition Zrotation Yrotation Xrotation
				End Site
				{
					OFFSET 0.000000 0.000000 0.099998
				}
			}
		}
	}
	JOINT LeftUpLeg
	{
		OFFSET 11.315661 0.000000 0.000000
		CHANNELS 6 Xposition Yposition Zposition Zrotation Yrotation Xrotation
		JOINT LeftLeg
		{
			OFFSET 0.000000 -0.000002 -38.200321
			CHANNELS 6 Xposition Yposition Zposition Zrotation Yrotation Xrotation
			JOINT LeftFoot
			{
				OFFSET 0.000000 -0.000004 -39.900856
				CHANNELS 6 Xposition Yposition Zposition Zrotation Yrotation Xrotation
				JOINT LeftToeBase
				{
					OFFSET 0.000000 -15.261639 0.000001
					CHANNELS 6 Xposition Yposition Zposition Zrotation Yrotation Xrotation
					JOINT LeftToeBaseEnd
					{
						OFFSET 0.000000 -7.539997 0.000001
						CHANNELS 6 Xposition Yposition Zposition Zrotation Yrotation Xrotation
						End Site
						{
							OFFSET 0.000000 0.000000 0.100000
						}
					}
				}
				JOINT LeftLegEnd
				{
					OFFSET 0.000000 0.000000 0.000000
					CHANNELS 6 Xposition Yposition Zposition Zrotation Yrotation Xrotation
					End Site
					{
						OFFSET 0.000000 0.000000 0.100000
					}
				}
			}
			JOINT LeftUpLegEnd
			{
				OFFSET 0.000000 0.000000 0.000000
				CHANNELS 6 Xposition Yposition Zposition Zrotation Yrotation Xrotation
				End Site
				{
					OFFSET 0.000000 0.000000 0.099998
				}
			}
		}
	}
}
MOTION
Frames: 2
Frame Time: 0.016667
-15.222280 -8.525490 85.205177 -4.574363 8.619153 -14.838567 -0.000002 2.080113 8.814248 -0.180922 -3.665129 6.500843 0.000003 -0.000003 8.844145 -1.525758 -4.492721 3.206815 -0.000002 0.000002 11.682281 -2.986908 -4.011457 12.400833 0.000002 0.000002 11.746697 -0.459567 1.137634 1.436238 0.000001 0.000001 17.658262 2.008218 -3.785328 11.994921 -0.000000 -0.000009 5.101507 0.124646 4.008910 -6.661985 0.000000 0.000008 5.101537 3.507941 0.558341 -26.380494 0.000000 0.000006 11.655075 -0.000000 -0.000000 0.000000 -2.625390 -0.000002 11.175235 5.320421 -93.410309 -0.869186 0.000004 0.000002 10.434713 -50.546781 -50.066089 42.869296 -0.000007 -0.000001 29.628412 29.571048 -2.958244 85.038669 0.000006 -0.000004 22.857567 55.840570 3.746132 4.817397 -2.867329 -2.944282 3.959579 31.494364 -20.139540 47.279963 -0.000004 -0.000001 3.350404 -19.081231 10.345845 -33.382205 -0.000002 -0.000005 3.756512 -12.604230 8.398805 -22.764013 -0.000001 0.000007 3.147341 0.000000 0.000004 -0.000001 -0.086751 -2.345272 10.030942 -18.644314 -37.242231 9.260688 -0.000000 0.000008 4.061079 -0.477777 -26.894438 4.087692 -0.000007 0.000015 3.248882 -0.977746 -26.894444 4.087687 0.000000 -0.000001 2.639710 0.000000 0.000001 -0.000000 0.104105 -0.006759 9.502976 -12.333956 -37.719962 5.661291 -0.000001 -0.000000 4.568735 0.131617 -27.033846 1.532368 -0.000011 -0.000003 3.655008 -0.368411 -27.033172 1.532404 0.000002 0.000001 2.741257 -0.000000 0.000001 0.000001 0.086725 2.267459 8.921769 -2.450551 -39.318049 0.074334 -0.000018 0.000007 4.061113 -0.546611 -27.867336 -1.850236 -0.000015 -0.000005 3.654986 0.451318 -27.867418 -1.849246 0.000002 -0.000000 2.741242 0.000001 0.000001 -0.000001 -0.173484 4.467206 7.976999 8.494650 -37.806012 -7.660664 -0.000003 0.000017 3.350419 -0.654330 -26.820056 -5.639769 -0.000001 -0.000011 2.842772 1.345649 -26.820112 -5.639794 -0.000003 -0.000006 2.639709 0.000000 -0.000000 0.000002 -0.000003 0.000003 0.000001 -0.000002 0.000001 -0.000000 0.000008 -0.000013 -0.000000 -0.000002 0.000000 0.000001 2.625406 -0.000002 11.175218 -6.011653 90.317634 -2.543479 0.000026 -0.000004 10.813637 65.719629 40.838630 56.009604 0.000001 0.000021 28.724798 -21.941499 2.814885 81.554904 0.644393 0.328884 25.716146 -79.653864 3.044908 2.887610 2.867332 -2.944281 3.959587 -31.533850 21.063506 45.970838 0.000003 -0.000010 3.350402 21.149587 -10.702789 -36.709255 -0.000002 0.000002 3.756521 13.957289 -8.915265 -25.015670 -0.000001 -0.000004 3.100020 0.000001 -0.000003 0.000000 0.086762 -2.345277 10.030902 -1.039313 47.737927 -12.244224 0.000008 -0.000002 4.061091 -1.225216 34.524653 -5.548004 0.000014 0.000008 3.248883 -1.725208 34.524643 -5.547976 -0.000004 -0.000002 2.639742 -0.000002 -0.000001 -0.000004 -0.104087 -0.006766 9.502962 6.269989 48.509803 -4.256058 -0.000016 0.000006 4.568731 -0.150214 34.709802 -2.080404 0.000002 -0.000003 3.655003 -0.650214 34.709802 -2.080399 0.000005 -0.000001 2.741226 0.000004 -0.000002 -0.000000 -0.086727 2.267441 8.921720 19.195946 49.667312 10.820495 -0.000007 -0.000004 4.061102 -0.178277 35.891695 2.536795 0.000006 -0.000001 3.654982 0.821729 35.891725 2.536797 -0.000000 -0.000006 2.741257 0.000000 0.000002 0.000000 0.173528 4.467202 7.977000 30.397313 45.706943 23.131957 -0.000003 0.000005 3.350403 0.396855 34.559552 7.694537 -0.000001 0.000007 2.842760 2.396840 34.559545 7.694525 0.000000 -0.000003 2.639710 0.000001 0.000001 0.000000 0.000006 -0.000000 0.000000 0.000001 0.000001 0.000000 0.000004 0.000006 -0.000000 0.000000 -0.000001 -0.000000 -11.289941 0.000001 -0.000009 -9.062447 -12.714053 16.532343 -0.000001 -0.000002 -38.200317 -0.136920 0.024707 11.796152 -0.000001 -0.000006 -39.900860 -16.247461 9.706061 13.054471 -0.000000 -15.261641 0.000002 -0.935467 -0.344392 -28.573741 0.000001 -7.370709 0.000002 0.000001 -0.000000 0.000000 0.000000 -0.000000 -0.000000 0.000000 0.000000 0.000000 -0.000001 -0.000002 -0.000011 -0.000001 0.000000 -0.000001 11.315655 0.000007 -0.000005 5.475495 -25.677406 8.655646 -0.000000 -0.000008 -38.200321 1.124831 -0.482431 23.109902 0.000001 -0.000004 -39.900848 0.545570 9.732732 9.295175 0.000000 -15.261639 0.000001 1.133635 -1.256465 -26.364766 -0.000002 -7.539997 0.000000 0.000001 -0.000000 -0.000000 0.000000 -0.000000 0.000001 0.000001 -0.000000 0.000000 0.000002 0.000000 0.000003 -0.000001 -0.000000 0.000001 
-15.248401 -8.493265 85.211510 -4.485486 8.575130 -14.843316 -0.000003 2.080114 8.814260 -0.206550 -3.714729 6.499009 -0.000000 -0.000002 8.844138 -1.527247 -4.437597 3.436344 -0.000001 0.000005 11.682278 -2.950495 -3.956968 12.026456 -0.000001 0.000003 11.746697 -0.487061 1.089496 1.584558 -0.000004 -0.000004 17.658272 2.061787 -3.698814 12.321269 0.000001 -0.000002 5.101487 0.129325 4.002934 -6.485492 0.000000 0.000002 5.101520 3.505821 0.588187 -26.731909 -0.000002 0.000003 11.655060 -0.000000 0.000000 -0.000001 -2.625400 -0.000001 11.175213 5.348340 -93.347437 -0.889331 -0.000037 0.000001 10.434704 -50.202382 -49.379525 42.750209 -0.000001 -0.000002 29.628391 29.274539 -2.903002 85.281599 0.000006 0.000014 22.857574 56.212290 3.838412 4.828542 -2.867324 -2.944302 3.959560 31.491137 -19.956133 47.542351 -0.000002 -0.000003 3.350406 -18.670566 10.260354 -32.718922 0.000007 0.000000 3.756518 -12.336397 8.289228 -22.315579 -0.000004 -0.000000 3.147325 0.000000 0.000002 -0.000000 -0.086760 -2.345285 10.030899 -18.079179 -36.014413 7.775316 0.000001 -0.000002 4.061114 -0.398909 -25.883731 3.910259 -0.000003 0.000011 3.248891 -0.898909 -25.883733 3.910251 -0.000006 0.000007 2.639710 0.000000 0.000002 0.000001 0.104108 -0.006773 9.502954 -11.973232 -36.709081 4.459941 -0.000005 0.000003 4.568705 0.154402 -26.258964 1.481544 -0.000002 0.000000 3.654984 -0.345588 -26.258954 1.481541 -0.000003 -0.000001 2.741241 0.000001 0.000000 0.000001 0.086736 2.267437 8.921733 -2.397496 -39.002713 -0.723634 -0.000023 -0.000017 4.061103 -0.546740 -27.687458 -1.839171 -0.000004 -0.000008 3.654993 0.453274 -27.687446 -1.839161 0.000000 0.000004 2.741241 0.000001 0.000001 0.000001 -0.173492 4.467206 7.976986 8.433249 -38.233927 -8.386864 -0.000005 0.000013 3.350423 -0.609365 -27.222199 -5.738776 -0.000001 -0.000010 2.842776 1.390622 -27.222194 -5.738757 -0.000001 -0.000003 2.639709 -0.000002 -0.000001 0.000001 -0.000001 -0.000005 -0.000015 0.000001 0.000001 -0.000000 0.000007 0.000008 -0.000000 0.000001 -0.000000 0.000000 2.625391 -0.000002 11.175199 -21.240145 90.038088 -17.758135 0.000002 -0.000003 10.813633 66.028094 41.328979 56.056759 0.000004 0.000012 28.724787 -21.770460 2.795970 81.595571 0.644386 0.328880 25.716148 -79.323263 2.413489 3.234869 2.867325 -2.944270 3.959542 -31.533867 21.063451 45.970820 0.000018 -0.000010 3.350402 21.149571 -10.702806 -36.709186 -0.000009 0.000003 3.756529 13.957337 -8.915164 -25.015723 0.000002 0.000006 3.100006 0.000002 0.000004 0.000003 0.086747 -2.345273 10.030897 -0.872012 48.665853 -12.553234 0.000005 0.000004 4.061098 -1.306822 35.204888 -5.690738 -0.000011 -0.000005 3.248871 -1.806802 35.204868 -5.690705 0.000002 0.000005 2.639711 -0.000000 0.000002 -0.000001 -0.104092 -0.006755 9.502954 6.547147 49.398448 -4.289646 0.000005 0.000006 4.568727 -0.179080 35.352499 -2.130674 0.000000 0.000004 3.654990 -0.679090 35.352281 -2.130679 -0.000000 -0.000003 2.741240 0.000001 -0.000001 0.000001 -0.086756 2.267456 8.921681 19.674835 50.456168 11.208763 -0.000005 0.000001 4.061098 -0.145506 36.482028 2.592274 -0.000006 -0.000000 3.654986 0.854485 36.482042 2.592284 -0.000001 -0.000001 2.741256 0.000001 -0.000001 0.000002 0.173524 4.467207 7.977022 30.899567 46.315496 23.756368 0.000004 0.000009 3.350399 0.480844 35.065064 7.841659 -0.000003 -0.000005 2.842754 2.480843 35.065054 7.841648 -0.000002 0.000000 2.639724 -0.000001 -0.000000 0.000000 -0.000008 0.000010 -0.000015 0.000003 0.000001 -0.000000 0.000001 0.000006 -0.000015 0.000001 0.000001 0.000000 -11.289947 0.000009 -0.000009 -9.194246 -12.649892 16.533125 -0.000004 -0.000007 -38.200333 -0.136084 0.023973 11.817779 0.000000 -0.000005 -39.900860 -16.208876 9.731559 13.049003 0.000002 -15.261640 0.000001 -0.941361 -0.336454 -28.600715 -0.000001 -7.370708 0.000002 -0.000001 0.000000 0.000000 0.000000 -0.000001 -0.000001 0.000001 -0.000001 -0.000001 -0.000001 -0.000004 -0.000007 0.000001 0.000000 -0.000001 11.315657 0.000007 -0.000000 5.411788 -25.630659 8.682187 -0.000002 -0.000005 -38.200325 1.129864 -0.482278 23.015347 0.000002 -0.000004 -39.900841 0.542268 9.736656 9.386172 -0.000001 -15.261635 -0.000002 1.135530 -1.249928 -26.399617 -0.000000 -7.539997 -0.000000 0.000001 -0.000000 0.000000 -0.000000 -0.000000 -0.000000 -0.000000 0.000000 0.000000 -0.000000 0.000000 0.000007 -0.000000 -0.000001 0.000001 
